<?xml version="1.0" encoding="UTF-8"?>
<svg id="Flat" xmlns="http://www.w3.org/2000/svg" version="1.1" viewBox="0 0 800 800">
  <defs>
    <style>
      .cls-1 {
        fill: #000;
        stroke-width: 0px;
      }
    </style>
  </defs>
  <path class="cls-1" d="M400,75c-179.5,0-325,145.5-325,325s145.5,325,325,325,325-145.5,325-325c-.2-179.4-145.6-324.8-325-325ZM512.5,300c20.7,0,37.5,16.8,37.5,37.5s-16.8,37.5-37.5,37.5-37.5-16.8-37.5-37.5c0-20.7,16.8-37.5,37.5-37.5ZM287.5,300c20.7,0,37.5,16.8,37.5,37.5s-16.8,37.5-37.5,37.5-37.5-16.8-37.5-37.5c0-20.7,16.8-37.5,37.5-37.5ZM551.6,487.5c-48.4,83.7-155.4,112.4-239.1,64-26.6-15.4-48.7-37.4-64-64-6.9-12-2.8-27.2,9.1-34.2,12-6.9,27.2-2.8,34.2,9.1h0c34.5,59.8,111,80.3,170.8,45.8,19-11,34.8-26.8,45.8-45.8,6.9-12,22.2-16,34.2-9.1s16,22.2,9.1,34.2Z"/>
  <circle class="cls-1" cx="512.5" cy="339.7" r="45.4"/>
</svg>