<svg width="25" height="24" viewBox="0 0 25 24" fill="none" xmlns="http://www.w3.org/2000/svg">
<g id="Icon / Instagram">
<path id="Vector" fill-rule="evenodd" clip-rule="evenodd" d="M16.6666 3.24268H8.66663C5.90521 3.24268 3.66663 5.48126 3.66663 8.24268V16.2427C3.66663 19.0041 5.90521 21.2427 8.66663 21.2427H16.6666C19.428 21.2427 21.6666 19.0041 21.6666 16.2427V8.24268C21.6666 5.48126 19.428 3.24268 16.6666 3.24268ZM19.9166 16.2427C19.9111 18.0353 18.4592 19.4872 16.6666 19.4927H8.66663C6.87398 19.4872 5.42212 18.0353 5.41663 16.2427V8.24268C5.42212 6.45003 6.87398 4.99817 8.66663 4.99268H16.6666C18.4592 4.99817 19.9111 6.45003 19.9166 8.24268V16.2427ZM17.4166 8.49268C17.9689 8.49268 18.4166 8.04496 18.4166 7.49268C18.4166 6.9404 17.9689 6.49268 17.4166 6.49268C16.8643 6.49268 16.4166 6.9404 16.4166 7.49268C16.4166 8.04496 16.8643 8.49268 17.4166 8.49268ZM12.6666 7.74268C10.1813 7.74268 8.16663 9.7574 8.16663 12.2427C8.16663 14.728 10.1813 16.7427 12.6666 16.7427C15.1519 16.7427 17.1666 14.728 17.1666 12.2427C17.1693 11.0484 16.696 9.90225 15.8515 9.05776C15.007 8.21327 13.8609 7.74002 12.6666 7.74268ZM9.91663 12.2427C9.91663 13.7615 11.1478 14.9927 12.6666 14.9927C14.1854 14.9927 15.4166 13.7615 15.4166 12.2427C15.4166 10.7239 14.1854 9.49268 12.6666 9.49268C11.1478 9.49268 9.91663 10.7239 9.91663 12.2427Z" fill="black"/>
</g>
</svg>
